<svg width="72" height="72" viewBox="0 0 72 72" fill="none" xmlns="http://www.w3.org/2000/svg">
<path fill-rule="evenodd" clip-rule="evenodd" d="M56 6H16V4H56.5V6H58V8H56V6ZM58 58V8H60V58H58ZM14 58L58 58V68H14L14 58ZM14 8L14 58H12L12 8H14ZM14 8H16V6H14V8ZM52 12H20V10H52V12ZM52 38V12H54V38H52ZM20 38H52V40H20V38ZM20 38H18V12H20V38ZM24 18V16H26V18H24ZM28 18V16H30V18H28ZM32 18V16H34V18H32ZM36 18V16H38V18H36ZM40 18V16H42V18H40ZM44 18V16H46V18H44ZM24 22V20H26V22H24ZM28 22V20H30V22H28ZM32 22V20H34V22H32ZM36 22V20H38V22H36ZM24 26V24H26V26H24ZM28 26V24H30V26H28ZM24 30V28H26V30H24ZM28 30V28H30V30H28ZM24 34V32H26V34H24ZM28 34V32H30V34H28ZM32 34V32H34V34H32ZM52 48V50H40V48H52ZM22 50V52H18V50H22ZM16 60V66H56V60H16Z" fill="#404040"/>
</svg>
