<svg width="75" height="75" viewBox="0 0 75 75" fill="none" xmlns="http://www.w3.org/2000/svg">
<path fill-rule="evenodd" clip-rule="evenodd" d="M41 38H29V36H41V38Z" fill="#404040"/>
<path d="M45 30H49V36H45V30Z" fill="#404040"/>
<path fill-rule="evenodd" clip-rule="evenodd" d="M41 42H29V40H41V42Z" fill="#404040"/>
<path fill-rule="evenodd" clip-rule="evenodd" d="M17 36H11V34H17V36Z" fill="#404040"/>
<path fill-rule="evenodd" clip-rule="evenodd" d="M55 36H61V34H55V36Z" fill="#404040"/>
<path fill-rule="evenodd" clip-rule="evenodd" d="M5 22H19V24H7V26H5V22Z" fill="#404040"/>
<path fill-rule="evenodd" clip-rule="evenodd" d="M67 22H53V24H65V26H67V22Z" fill="#404040"/>
<path fill-rule="evenodd" clip-rule="evenodd" d="M7 26H11V28H9V30H7V26Z" fill="#404040"/>
<path fill-rule="evenodd" clip-rule="evenodd" d="M65 26H61V28H63V30H65V26Z" fill="#404040"/>
<path fill-rule="evenodd" clip-rule="evenodd" d="M9 30H13V32H11V34H9V30Z" fill="#404040"/>
<path fill-rule="evenodd" clip-rule="evenodd" d="M63 30H59V32H61V34H63V30Z" fill="#404040"/>
<path fill-rule="evenodd" clip-rule="evenodd" d="M19 24H21V26H51V24H53V36H55V38H53V50H19V38H17V36H19V24ZM51 28H21V48H51V28Z" fill="#404040"/>
</svg>
